<svg version="1.2" xmlns="http://www.w3.org/2000/svg" viewBox="0 0 889 285" width="889" height="285"><style>.a{fill:#404041}.b{fill:none}</style><path fill-rule="evenodd" class="a" d="m102.4 7.8c0.1-4 3.3-7.2 7.3-7.2 4 0 7.3 3.3 7.3 7.3 0 4-3.3 7.2-7.3 7.2-4 0-7.3-3.3-7.3-7.3zm-27.2 41.7c-6.5-6.6-8.8-14.3-6.1-20.8 2.3-5.5 7.8-9.1 14.2-9.1h14.1v11.3h-14.1c-1.8 0-3.2 0.8-3.8 2.1-0.7 1.6 0 4.7 3.7 8.5 14.5 14.6 32.4 27 52.1 40.2 24.8 16.5 48.8 32.6 63.5 57.3q-1.2 4.2-3.1 7.6-1.4 2.6-3.1 4.6c-12.9-26.3-38.3-43.4-63.6-60.2-38.2-25.4-48.9-36.7-53.8-41.5zm81.1-23.4c-1-2.4-2.5-4.6-4.3-6.5h5.5c13.5 0 18.8 6.1 20.8 9.7 2.9 5.6 2.2 12.5-2.2 19-1.1 1.8-3.1 4.2-5.4 6.9h-15.2c4.5-4.9 9.4-10.4 11.3-13.1 1.9-3 2.5-5.7 1.5-7.5-1.2-2.3-5.2-3.7-10.7-3.7q-0.4-2.4-1.3-4.8zm-20.3 4.8h-14.1v-11.3h14.1c6.3 0 11.9 3.6 14.2 9.1 2.7 6.5 0.4 14.2-6.2 20.8-4.3 4.4-8.8 8.4-13.4 12.3h14.1 20.1q0 0 0 0c12.4 0.2 25.2 5.5 35.2 14.5 11.5 10.3 18.2 24.7 18.8 40.5 1.3 34.5-12.3 48.1-24.3 56.2-28.3 18.9-30.3 35.7-33.7 63.4q-0.2 1.4-0.3 2.9-1.9 0.2-3.8 0.2-3.8 0-7.5-0.7 0.2-1.9 0.4-3.7c3.5-28.9 6-49.7 38.7-71.5 6.6-4.5 20.4-13.7 19.2-46.4-0.6-16.2-8.5-26.7-15-32.5-8.1-7.3-18.8-11.6-28.5-11.6h-29.6c-5.6-3.5-18.3-12.7-19.2-13.4 7.2-5.5 14.2-11.5 20.9-18.2 3.7-3.8 4.3-6.9 3.6-8.5-0.5-1.3-1.9-2.1-3.7-2.1zm-20.7-11.3v31.6q-2.7 2.2-5.7 4.4-2.9-2.2-5.6-4.4v-31.6zm-72.2 28.7c-4.3-6.5-5.1-13.4-2.1-19 2-3.6 7.2-9.7 20.8-9.7h5.5c-1.8 1.9-3.3 4.1-4.3 6.5q-0.9 2.4-1.3 4.8c-5.5 0-9.5 1.4-10.7 3.7-1 1.8-0.4 4.5 1.5 7.5 1.9 2.7 6.8 8.2 11.3 13.1h-15.2c-2.3-2.7-4.3-5.1-5.5-6.9zm167.4 119.7c2 8.9 3.1 18.7 3.1 29.6 0 14-3.8 26.7-11.1 36.8-6.7 9.4-16.2 16.3-27.3 20-11.3 3.8-23.9 4-35.5 0.5-11.7-3.6-22.1-10.6-30-20.4-8 9.8-18.3 16.8-30 20.4-5.6 1.6-11.4 2.5-17.1 2.5-6.3 0-12.6-1-18.5-3-11.1-3.7-20.5-10.6-27.3-20-7.3-10.1-11.1-22.8-11.1-36.8 0-63.6 38-89 78.3-115.9q5.1-3.4 10.3-6.9 4.8 3.6 9.6 7.1-6.8 4.6-13.6 9.1c-39.4 26.3-73.3 49-73.3 106.6 0 11.8 3 21.9 9 30.2 5.3 7.5 12.8 13 21.7 15.9 9.1 3.1 19.3 3.2 28.7 0.4 10.1-3.1 19-9.4 25.7-18.3 2-2.7 2.5-6.7 1.2-9.3-1.2-2.4-3.7-3.5-7.5-3.5q-0.1 0-0.1 0c-2.3 0-9.2 0-13-5-3.6-4.9-2-11.4-0.1-17.5q0.1-0.5 0.3-1c5.9-18.6 1.7-26.8 0-29.9-3.7-7.1-11.2-12.5-22.2-15.9l3.3-10.7c14 4.3 23.7 11.5 28.9 21.4 8.1 15.4 2.7 32.2 0.7 38.5q-0.1 0.5-0.2 0.9c-1.6 4.9-1.7 6.7-1.6 7.4 0.4 0.2 1.5 0.5 3.8 0.5 5.7 0 10.6 1.7 14.1 4.8 3.4-3.1 8.2-4.8 13.9-4.8q0.1 0 0.3 0c2.2 0 3.2-0.3 3.6-0.5 0.1-0.7 0-2.5-1.5-7.4q-0.2-0.4-0.3-0.9c-2-6.3-7.4-23.1 0.7-38.5 5.2-9.9 14.9-17.1 28.9-21.4l3.3 10.7c-11 3.4-18.5 8.8-22.2 15.9-5.9 11.3-1.6 24.8 0 29.9q0.2 0.5 0.3 1c2 6.1 3.5 12.6-0.1 17.5-3.7 5-10.7 5-12.9 5q-0.1 0-0.1 0c-3.9 0-6.4 1.1-7.5 3.5-1.4 2.6-0.9 6.6 1.1 9.3 6.7 8.9 15.6 15.2 25.7 18.3 9.4 2.8 19.6 2.7 28.7-0.4 8.9-2.9 16.4-8.4 21.8-15.9 5.9-8.3 9-18.4 9-30.2 0-7.5-0.6-14.4-1.7-20.8 3-2.2 6.4-5 9.8-8.8zm-70.3 93.9q6.2 1.6 12.6 2c-8.3 13.1-23.1 20.1-43.1 20.1-20.1 0-34.9-7-43.2-20.1q6.4-0.4 12.6-2 2.8 3 6.4 5.2c6.2 3.8 14.4 5.7 24.2 5.7 9.8 0 17.9-1.9 24.1-5.7q3.7-2.2 6.4-5.2zm-109.2-98.3c32.7 21.8 35.2 42.6 38.7 71.5q0.2 1.8 0.4 3.7-3.7 0.7-7.5 0.7-1.9 0-3.8-0.2-0.1-1.5-0.3-2.9c-3.3-27.3-5.4-44-32.5-62.6q1.2-5.9 3.2-11.4 1 0.6 1.8 1.2zm-24.4-10.9c-4.1-8.5-6.7-20-6.1-35.9 0.6-15.8 7.3-30.2 18.8-40.5 10-9 22.8-14.3 35.2-14.5q0 0 0 0h24.1c4.4 4 8.9 7.7 13.5 11.3h-36.8c-9.7 0-20.4 4.3-28.5 11.6-6.5 5.8-14.4 16.3-15 32.5-0.3 8.4 0.3 15.2 1.6 20.8q-4 7-6.8 14.7z"/><path fill-rule="evenodd" class="a" d="m470.7 245.5c0 0-62 0-65.1 0 2 16.9 15.1 23.3 26.2 23.3 11.1 0 18.4-5.3 22.2-9.1l10.6 11.4c-7.8 8.3-19.9 13.3-32.8 13.3-24.2 0-42.5-18.3-42.5-42.5 0-24.2 18.2-42.5 42.2-42.5 23.1 0 39.4 16.7 39.2 46.1zm-17.3-11.5c0 0-1.8-20.3-23.3-20.3-11 0-21.3 7.5-24.3 20.3 3.3 0 47.6 0 47.6 0z"/><path class="a" d="m723 174.8c0 6.3-5.1 11.5-11.5 11.5-6.3 0-11.5-5.2-11.5-11.5 0-6.4 5.2-11.5 11.5-11.5 6.4 0 11.5 5.1 11.5 11.5z"/><path class="a" d="m483.9 165h15.8v118h-15.8z"/><path class="a" d="m703.6 200.8h15.8v82.2h-15.8z"/><path class="a" d="m801.8 200.8v5.4l-45.4 63.1h45.4v13.7h-68v-5.6l45.3-62.9h-45.2v-13.7z"/><path fill-rule="evenodd" class="a" d="m646.6 199.4c15.1 0 24.3 9.3 24.3 9.3v-7.9h15.8v82.2h-15.8v-7.7c-7.3 6.6-15.9 9.1-24.3 9.1-24.2 0-42.3-18.3-42.3-42.5 0-24.2 18.1-42.5 42.3-42.5zm0.1 14.9c-15.1 0-26.1 11.6-26.1 27.6 0 15.9 11 27.5 26.1 27.5 9.8 0 19.2-4.8 24.2-12.6v-29.8c-5.1-7.9-14.4-12.7-24.2-12.7z"/><path fill-rule="evenodd" class="a" d="m654.6 54c15.1 0 24.3 9.3 24.3 9.3v-43.7h15.8v118.1h-15.8v-7.8c-7.3 6.6-15.9 9.1-24.3 9.1-24.2 0-42.4-18.3-42.4-42.5 0-24.2 18.2-42.5 42.4-42.5zm0.1 15c-15.1 0-26.2 11.5-26.2 27.5 0 16 11.1 27.6 26.2 27.6 9.8 0 19.2-4.9 24.2-12.6v-29.9c-5.1-7.9-14.4-12.6-24.2-12.6z"/><path class="a" d="m591.1 234.6v48.4h-15.8v-48.1c0-10-7.3-20.6-20.9-20.6-10.5 0-18.2 5.7-21.7 16v0.3 52.4h-15.8v-118h15.8v46.1c0 0 7.8-11.7 25.3-11.7 20.1 0 33.1 13.8 33.1 35.2z"/><path fill-rule="evenodd" class="a" d="m378.9 224.3c0 33.6-26.6 59-61.9 59h-36.9v-118.1h36.9c35.3 0 61.9 25.4 61.9 59.1zm-17.2 0c0-25.3-18.8-43.6-44.7-43.6h-20.1v87.1h20.1c25.9 0 44.7-18.3 44.7-43.5z"/><path class="a" d="m583.2 19.6h15.8v118.1h-15.8z"/><path fill-rule="evenodd" class="a" d="m337.8 19.6l48.6 118.1h-18.1l-10.8-27h-52.6l-10.9 27h-17.9l48.6-118.1zm14 76l-20.6-51.9-20.9 51.9z"/><path class="a" d="m471.6 89.2v48.5h-15.7v-48.2c0-9.9-7.4-20.5-20.9-20.5-17.8 0-21.8 16.2-21.8 16.2v52.5h-15.8v-118.1h15.8v46.1c0 0 7.3-11.7 25.3-11.7 20.1 0 33.1 13.8 33.1 35.2z"/><path fill-rule="evenodd" class="a" d="m570.1 96.5c0 24.2-18.4 42.4-42.7 42.4-24.3 0-42.7-18.2-42.7-42.4 0-24.3 18.4-42.5 42.7-42.5 24.3 0 42.7 18.2 42.7 42.5zm-16.4 0c0-15.8-11.3-27.6-26.3-27.6-15.3 0-26.4 11.6-26.4 27.6 0 15.9 11.1 27.5 26.4 27.5 15 0 26.3-11.8 26.3-27.5z"/><path fill-rule="evenodd" class="a" d="m888.7 245.5c0 0-62 0-65.2 0 2.1 16.9 15.2 23.3 26.3 23.3 11.1 0 18.3-5.3 22.1-9.1l10.7 11.4c-7.8 8.3-19.9 13.3-32.8 13.3-24.2 0-42.5-18.3-42.5-42.5 0-24.2 18.1-42.5 42.2-42.5 23 0 39.4 16.7 39.2 46.1zm-17.3-11.5c0 0-1.8-20.3-23.3-20.3-11.1 0-21.3 7.5-24.3 20.3 3.3 0 47.6 0 47.6 0z"/><path class="b" d=""/><path class="b" d=""/><path class="b" d=""/><path class="b" d=""/></svg>